<?xml version="1.0" encoding="utf-8"?>
<!-- Generator: Adobe Illustrator 15.0.0, SVG Export Plug-In . SVG Version: 6.00 Build 0)  -->
<!DOCTYPE svg PUBLIC "-//W3C//DTD SVG 1.1//EN" "http://www.w3.org/Graphics/SVG/1.1/DTD/svg11.dtd">
<svg version="1.1" id="Layer_1" xmlns="http://www.w3.org/2000/svg" xmlns:xlink="http://www.w3.org/1999/xlink" x="0px" y="0px"
	 width="300px" height="300px" viewBox="0 0 300 300" enable-background="new 0 0 300 300" xml:space="preserve">
<g transform="matrix( 1, 0, 0, 1, 0,99.5) ">
	<g transform="matrix( 1, 0, 0, 1, 0,0) ">
		<g>
			<g id="Symbole_1_0_Layer1_0_FILL">
				
					<linearGradient id="SVGID_1_" gradientUnits="userSpaceOnUse" x1="-0.5" y1="-246" x2="299.5" y2="-246" gradientTransform="matrix(1 0 0 -1 0 -289.5)">
					<stop  offset="0" style="stop-color:#FFFFFF;stop-opacity:0"/>
					<stop  offset="0.502" style="stop-color:#FFFFFF"/>
					<stop  offset="1" style="stop-color:#FFFFFF;stop-opacity:0"/>
				</linearGradient>
				<path fill="url(#SVGID_1_)" d="M98-37h35V0v2h15.5V0v-87h50V0v2h101V0h-99v-89h-54V0H135v-39H96V0H-0.5v2H98V0V-37z"/>
				
					<linearGradient id="SVGID_2_" gradientUnits="userSpaceOnUse" x1="-0.5" y1="-390.5" x2="299.5" y2="-390.5" gradientTransform="matrix(1 0 0 -1 0 -289.5)">
					<stop  offset="0" style="stop-color:#FFFFFF;stop-opacity:0"/>
					<stop  offset="0.502" style="stop-color:#FFFFFF"/>
					<stop  offset="1" style="stop-color:#FFFFFF;stop-opacity:0"/>
				</linearGradient>
				<path fill="url(#SVGID_2_)" d="M299.5,102v-2h-300v2H299.5z"/>
			</g>
		</g>
	</g>
</g>
<g transform="matrix( 1, 0, 0, 1, 0,99.5) ">
	<g transform="matrix( 1, 0, 0, 1, 0,0) ">
		<g>
			<g id="Symbole_1_0_Layer1_0_FILL_1_">
				
					<linearGradient id="SVGID_3_" gradientUnits="userSpaceOnUse" x1="-30" y1="-1357" x2="270" y2="-1357" gradientTransform="matrix(1 0 0 -1 0 -289.5)">
					<stop  offset="0" style="stop-color:#FFFFFF;stop-opacity:0"/>
					<stop  offset="0.502" style="stop-color:#FFFFFF"/>
					<stop  offset="1" style="stop-color:#FFFFFF;stop-opacity:0"/>
				</linearGradient>
				<path fill="url(#SVGID_3_)" d="M68.5,1074h35v37v2H119v-2v-87h50v87v2h101v-2h-99v-89h-54v89h-11.5v-39h-39v39H-30v2h98.5v-2
					V1074z"/>
				
					<linearGradient id="SVGID_4_" gradientUnits="userSpaceOnUse" x1="-30" y1="-1501.5" x2="270" y2="-1501.5" gradientTransform="matrix(1 0 0 -1 0 -289.5)">
					<stop  offset="0" style="stop-color:#FFFFFF;stop-opacity:0"/>
					<stop  offset="0.502" style="stop-color:#FFFFFF"/>
					<stop  offset="1" style="stop-color:#FFFFFF;stop-opacity:0"/>
				</linearGradient>
				<path fill="url(#SVGID_4_)" d="M270,1213v-2H-30v2H270z"/>
			</g>
		</g>
	</g>
</g>
<text transform="matrix(1 0 0 1 62.5 1380)" fill="#FFFFFF" font-family="'BladeRunnerMovieFont'" font-size="72">NK</text>
<text transform="matrix(1 0 0 1 62.5 1380)" fill="none" stroke="#FFFFFF" stroke-miterlimit="10" font-family="'BladeRunnerMovieFont'" font-size="72">NK</text>
<text transform="matrix(1 0 0 1 42.5 1411)" fill="#FFFFFF" font-family="'BladeRunnerMovieFont'" font-size="24">S T U D I O S</text>
<text transform="matrix(1 0 0 1 92 269)" fill="#DD1F26" font-family="'BladeRunnerMovieFont'" font-size="72">NK</text>
<text transform="matrix(1 0 0 1 72 292)" fill="#FFFFFF" font-family="'BladeRunnerMovieFont'" font-size="24">S T U D I O S</text>
<rect x="47.5" y="235.5" fill="none" width="41" height="1"/>
</svg>
